<svg width="18" height="18" viewBox="0 0 18 18" fill="none" xmlns="http://www.w3.org/2000/svg">
<g clip-path="url(#clip0_0_1)">
<rect width="1440" height="1024" transform="translate(-531 -73)" fill="#FBF6EE"/>
<rect x="-12" y="-8" width="556" height="34" rx="17" fill="#D9D9D9"/>
<path d="M6.68571 0.5C8.45888 0.5 10.1594 1.16525 11.4132 2.34941C12.667 3.53357 13.3714 5.13963 13.3714 6.81429C13.3714 8.37829 12.7646 9.816 11.7669 10.9234L12.0446 11.1857H12.8571L18 16.0429L16.4571 17.5L11.3143 12.6429V11.8754L11.0366 11.6131C9.864 12.5554 8.34171 13.1286 6.68571 13.1286C4.91255 13.1286 3.21202 12.4633 1.9582 11.2792C0.704386 10.095 0 8.48894 0 6.81429C0 5.13963 0.704386 3.53357 1.9582 2.34941C3.21202 1.16525 4.91255 0.5 6.68571 0.5ZM6.68571 2.44286C4.11429 2.44286 2.05714 4.38571 2.05714 6.81429C2.05714 9.24286 4.11429 11.1857 6.68571 11.1857C9.25714 11.1857 11.3143 9.24286 11.3143 6.81429C11.3143 4.38571 9.25714 2.44286 6.68571 2.44286Z" fill="#705534"/>
</g>
<defs>
<clipPath id="clip0_0_1">
<rect width="1440" height="1024" fill="white" transform="translate(-531 -73)"/>
</clipPath>
</defs>
</svg>
